<?xml version="1.0" encoding="UTF-8"?>
<svg xmlns="http://www.w3.org/2000/svg" viewBox="0 0 222.04 54.41">
  <defs>
    <style>
      .cls-1, .cls-2 {
        fill: #666;
      }

      .cls-3 {
        fill: #ccc;
      }

      .cls-2 {
        font-family: ArialMT, Arial;
        font-size: 46px;
      }
    </style>
  </defs>
  <g id="Layer_2" data-name="Layer 2">
    <path class="cls-1" d="M94.48,5.17c-4.64,0-9.09,1.84-12.37,5.13-3.28,3.28-5.13,7.73-5.13,12.37s1.84,9.09,5.13,12.37c3.28,3.28,7.73,5.13,12.37,5.13s9.09-1.84,12.37-5.13c3.28-3.28,5.13-7.73,5.13-12.37,0-4.64-1.85-9.09-5.13-12.37-3.28-3.28-7.73-5.13-12.37-5.13h0Zm0,34.08c-3.28,0-6.48-.97-9.21-2.79-2.73-1.82-4.85-4.41-6.11-7.44-1.25-3.03-1.58-6.36-.94-9.58,.64-3.22,2.22-6.17,4.54-8.49,2.32-2.32,5.27-3.9,8.49-4.54,3.22-.64,6.55-.31,9.58,.94,3.03,1.25,5.62,3.38,7.44,6.11,1.82,2.73,2.79,5.93,2.79,9.21,0,4.4-1.75,8.61-4.86,11.72-3.11,3.11-7.33,4.86-11.72,4.86h0Z"/>
    <path class="cls-1" d="M100.23,12.9c.39,1.27,.69,2.56,.9,3.87,1.26-.12,2.52-.31,3.77-.57-.43-1.35-1.02-2.64-1.77-3.84-.95,.25-1.92,.44-2.9,.55h0Z"/>
    <path class="cls-1" d="M94.12,38.48v-5.76c-1.67,.01-3.16,.09-4.45,.22,1.16,3.27,2.82,5.27,4.45,5.53h0Z"/>
    <path class="cls-1" d="M94.85,32.73v5.76c1.63-.26,3.29-2.27,4.45-5.54-1.35-.14-2.87-.21-4.45-.22h0Z"/>
    <path class="cls-1" d="M89.43,32.23c1.88-.2,3.72-.24,4.69-.25v-3.85c-2.07,.01-3.94,.1-5.58,.24,.2,1.31,.5,2.6,.89,3.86h0Z"/>
    <path class="cls-1" d="M88.43,27.66c2.43-.21,4.7-.26,5.69-.26v-4.43h-6.01c0,1.57,.12,3.13,.32,4.69h0Z"/>
    <path class="cls-1" d="M100.43,28.38c-1.71-.15-3.61-.23-5.58-.24v3.85c.95,0,2.79,.05,4.69,.24,.39-1.26,.69-2.55,.89-3.85h0Z"/>
    <path class="cls-1" d="M100.52,17.55c-2.45,.21-4.71,.25-5.67,.26v4.43h6.01c-.01-1.57-.13-3.13-.34-4.68h0Z"/>
    <path class="cls-1" d="M100.86,22.97h-6.01v4.43c.96,0,3.24,.05,5.69,.26,.21-1.55,.31-3.12,.32-4.69h0Z"/>
    <path class="cls-1" d="M106.64,22.97c-.02,1.86-.28,3.72-.76,5.52,1.26,.34,2.26,.78,2.73,1.36,1.09-2.13,1.67-4.48,1.72-6.88h-3.68Z"/>
    <path class="cls-1" d="M82.33,22.97h-3.68c.04,2.41,.64,4.77,1.74,6.91,.45-.59,1.45-1.04,2.71-1.39h0c-.49-1.8-.75-3.66-.77-5.53h0Z"/>
    <path class="cls-1" d="M83.14,16.73c-1.38-.37-2.28-.81-2.71-1.34h0c-1.1,2.12-1.71,4.46-1.77,6.85h3.68c.03-1.86,.3-3.71,.8-5.51h0Z"/>
    <path class="cls-1" d="M88.11,22.23h6.01v-4.43c-2.01-.01-3.93-.1-5.67-.25-.21,1.55-.33,3.11-.34,4.68h0Z"/>
    <path class="cls-1" d="M102.71,11.7c-1.5-2.16-3.44-3.74-5.61-4.45,1.14,1.05,2.13,2.76,2.9,4.93h0c.91-.1,1.82-.26,2.71-.48h0Z"/>
    <path class="cls-1" d="M105.9,22.23c-.03-1.8-.29-3.6-.78-5.33-1.28,.27-2.57,.46-3.87,.58,.22,1.57,.34,3.16,.35,4.75h4.3Z"/>
    <path class="cls-1" d="M89.71,12.26c1.28,.13,2.76,.21,4.4,.22V6.87c-1.61,.26-3.25,2.21-4.4,5.4h0Z"/>
    <path class="cls-1" d="M99.5,12.98c-1.88,.19-3.7,.23-4.65,.24v3.85c2.06,0,3.92-.09,5.56-.24h0c-.21-1.31-.51-2.59-.91-3.85h0Z"/>
    <path class="cls-1" d="M88.56,16.83c1.63,.14,3.5,.23,5.56,.24v-3.85c-1.65-.01-3.24-.09-4.64-.24-.4,1.26-.71,2.55-.91,3.86h0Z"/>
    <path class="cls-1" d="M94.85,6.87v5.62c1.64,0,3.12-.09,4.4-.21-1.16-3.19-2.79-5.14-4.4-5.4h0Z"/>
    <path class="cls-1" d="M88.69,32.32c-.39-1.27-.68-2.56-.89-3.87-1.27,.12-2.53,.32-3.78,.58,.42,1.35,1.01,2.64,1.74,3.86,.96-.27,1.94-.46,2.93-.57h0Z"/>
    <path class="cls-1" d="M106.63,22.23h3.68c-.06-2.38-.66-4.71-1.76-6.82-.5,.56-1.48,.99-2.72,1.32h0c.5,1.79,.77,3.64,.8,5.51h0Z"/>
    <path class="cls-1" d="M103.53,33.75c-.98,1.52-2.25,2.83-3.75,3.85,1.85-.66,3.56-1.66,5.05-2.94-.02-.26-.39-.59-1.29-.91Z"/>
    <path class="cls-1" d="M105.9,22.97h-4.3c0,1.59-.12,3.18-.33,4.75,1.31,.12,2.6,.32,3.89,.59,.47-1.74,.73-3.54,.75-5.34h0Z"/>
    <path class="cls-1" d="M103.45,11.48c.76-.26,1.22-.54,1.34-.83-1.48-1.27-3.18-2.26-5.02-2.92,1.46,.99,2.71,2.26,3.68,3.74Z"/>
    <path class="cls-1" d="M105.62,16.02c1.54-.4,2.42-.87,2.53-1.34-.76-1.3-1.71-2.49-2.81-3.52-.39,.45-.91,.79-1.49,.96,.74,1.23,1.33,2.54,1.76,3.9h0Z"/>
    <path class="cls-1" d="M83.35,16.01c.43-1.37,1.03-2.68,1.77-3.91-.58-.17-1.09-.51-1.47-.97-1.09,1.02-2.03,2.2-2.8,3.48,.04,.48,.91,.98,2.5,1.39h0Z"/>
    <path class="cls-1" d="M105.67,29.19c-.43,1.37-1.01,2.69-1.74,3.93,.59,.18,1.1,.53,1.47,1.02,1.09-1.03,2.02-2.22,2.78-3.51h-.01c0-.4-.69-.95-2.5-1.44h0Z"/>
    <path class="cls-1" d="M83.31,29.21c-1.59,.43-2.46,.93-2.46,1.42h-.06c.76,1.31,1.71,2.5,2.81,3.54,.36-.5,.87-.86,1.45-1.04-.73-1.24-1.32-2.55-1.74-3.92h0Z"/>
    <path class="cls-1" d="M103.21,32.88c.73-1.21,1.31-2.51,1.74-3.86-.27-.06-.55-.12-.86-.17-.88-.16-1.86-.29-2.93-.4-.2,1.31-.5,2.6-.89,3.87,.99,.11,1.97,.3,2.94,.56h0Z"/>
    <path class="cls-1" d="M87.72,17.49c-1.06-.11-2.05-.24-2.92-.4-.33-.06-.65-.12-.95-.19h0c-.49,1.74-.75,3.53-.78,5.34h4.3c.02-1.59,.13-3.17,.35-4.75h0Z"/>
    <path class="cls-1" d="M87.09,12.63c-.46-.09-.88-.19-1.25-.29h0c-.74,1.21-1.34,2.5-1.77,3.85,1.24,.26,2.5,.46,3.76,.58,.21-1.31,.51-2.6,.9-3.87-.59-.07-1.14-.16-1.65-.26h0Z"/>
    <path class="cls-1" d="M85.52,11.47c.97-1.47,2.21-2.74,3.67-3.73-1.82,.65-3.51,1.63-4.98,2.88,.09,.29,.54,.58,1.31,.84h0Z"/>
    <path class="cls-1" d="M91.87,7.26c-2.17,.71-4.1,2.28-5.6,4.44,.89,.22,1.8,.38,2.71,.49,.76-2.17,1.76-3.88,2.89-4.92h0Z"/>
    <path class="cls-1" d="M102.79,33.53c-.3-.08-.63-.16-1.01-.23-.53-.1-1.12-.19-1.74-.27-.77,2.23-1.78,3.99-2.94,5.06,2.21-.72,4.18-2.34,5.69-4.56h0Z"/>
    <path class="cls-1" d="M85.45,33.76c-.82,.29-1.25,.61-1.25,.93h-.01c1.48,1.27,3.18,2.26,5.02,2.91-1.49-1.02-2.77-2.32-3.75-3.84h0Z"/>
    <path class="cls-1" d="M86.18,33.54c1.51,2.22,3.47,3.83,5.68,4.56-1.16-1.07-2.17-2.83-2.94-5.06h0c-.93,.11-1.84,.28-2.74,.5h0Z"/>
    <path class="cls-1" d="M83.82,28.32c1.28-.27,2.58-.47,3.89-.59-.21-1.58-.33-3.17-.34-4.76h-4.3c.02,1.81,.27,3.61,.75,5.35h0Z"/>
  </g>
  <g id="Layer_3" data-name="Layer 3">
    <text class="cls-2" transform="translate(119.82 39.48)"><tspan x="0" y="0">GDC</tspan></text>
  </g>
  <g id="Layer_4" data-name="Layer 4">
    <rect class="cls-1" x="12.15" y="5.57" width="7" height="24"/>
    <rect class="cls-3" x="36.63" y="17.56" width="7" height="22.01"/>
    <rect class="cls-1" x="48.83" y="17.56" width="7" height="22.01"/>
    <rect class="cls-1" x="36.63" y="5.57" width="7" height="7"/>
    <rect class="cls-1" x="48.62" y="5.57" width="17" height="7"/>
    <rect class="cls-1" x="24.33" y="5.57" width="7" height="34"/>
    <rect class="cls-1" y="5.57" width="7" height="34"/>
  </g>
</svg>